/* XPM */
static char * active_image_xpm[] = {
"120 80 12 1",
" 	c None",
".	c #CECECE",
"+	c #C79191",
"@	c #C05454",
"#	c #C9A6A6",
"$	c #BA1818",
"%	c #CBBABA",
"&	c #BE4040",
"*	c #C26969",
"=	c #BC2C2C",
"-	c #C57D7D",
";	c #F7E5E5",
"                                                                                                                        ",
"                                                                                                                        ",
"                                                                                                                        ",
"                                                                                                                        ",
"                                                                                                                        ",
"                                                                                                                        ",
"                                                                                                                        ",
"                                                                                                                        ",
"                                                                                                                        ",
"                                                                                                                        ",
"                                                                                                                        ",
"                                       ..........................................                                       ",
"                           ..................................................................                           ",
"                      ............................................................................                      ",
"                  ....................................................................................                  ",
"               ..........................................................................................               ",
"             ..............................................................................................             ",
"           ..................................................................................................           ",
"          ....................................................................................................          ",
"         ......................................................................................................         ",
"        ........................................................................................................        ",
"       ..........................................................................................................       ",
"      ............................................................................................................      ",
"     .+............................................................................................................     ",
"     @............................................................................................................#     ",
"    @$.............................................................................................................%    ",
"    $...........+++......................+++++++%%.............................##+++++##...........................$    ",
"   $@.........%++++......................+++++++%%.............................##+++++##.............................   ",
"   $........#&$$$$$$&&#..............**==$$$$$$$$$**--$$$$$$$$==##..........--=$$$$$$$$$$$*%%.......@$$$$@...+......$   ",
"  ..........#&$$$$$$&&#..............**==$$$$$$$$$**--$$$$$$$$==##..........--=$$$$$$$$$$$*%%.......@$$$$@...+$$$@.+$.  ",
"  $........@$$$$$$$$$$$*..........%==$$$$$$$$$$$$$$$$$$$$$$$$$$$@@......%%==$$$$$$$$$$$$$$$==+....++$$$$$@...@$$$$.+$$  ",
"  $........@$$$$$$$$$$$*..........%==$$$$$$$$$$$$$$$$$$$$$$$$$$$@@......%%==$$$$$$$$$$$$$$$==+....++$$$$$$@..@$$$$..$$$ ",
" .+.......@$$$$$$$$$$$$$@@........=$$$$$$$$$$$$$$$$$$$$$$$$$$$$$++....%%==$$$$$$$$$$$$$$$$$$$$++....=$$$$$@..*$$$$..$$$ ",
" .........$$$$$$$$$$$$$$@@........=$$$$$$$$$$$$$$$$$$$$$$$$$$$$$++....%%==$$$$$$$$$$$$$$$$$$$$++....=$$$$$@...$$$$@.*$$ ",
" $.......$$$=-....%-=$$$$$+.....--$$$$$==#......--==$$$$$$$$++%%......&&$$$$$$&##.....##**$$$$==%...%+&&$$@....+&$@..&+ ",
" $.......$$$=-....%-=$$$$$+.....--$$$$$==#......--==$$$$$$$$++%%......&&$$$$$$&##.....##**$$$$==%...%+&&$$@....+&$@..+&;",
" $.......$$=%.......%==$$$&.....==$$$==...........##$$$$$$$$........##$$$$$$@@............+$$$$$-.....@@$$@.....@$@...$.",
".$......=$$=%.......%==$$$&.....==$$$==...........##$$$$$$$$........##$$$$$$@@............+$$$$$-.....@@$$@.....@$@...$.",
".$...+..$$$-.........--$$$$%%.##$$$$$++.............**$$$$$$........--$$$$$$%%.............&&$$$&.....@@$$@.....@$@...$.",
".$...+..$$$-.........--$$$$%%.##$$$$$++.............**$$$$$$........--$$$$$$%%.............&&$$$&.....@@$$@.....@$@...$.",
".$..&$%.$$$............$$$$++.++$$$$$...............++$$$$$$........@@$$$$@@...............++$$$$.....@@$$@.....@$@...$.",
".$..&$%.$$$............$$$$++.++$$$$$...............++$$$$$$........@@$$$$@@...............++$$$$.....@@$$@.....@$@...$.",
".$..$$+.$$$............$$$$++.++$$$$$...............++$$$$$$........@@$$$$@@...............++$$$$.....@@$$@.....@$@...$.",
" $...$+.+$$............$$$$++.++$$$$$...............++$$$$$$........@@$$$$@@...............++$$$$.....@@$$@.....@$@...$.",
" $...$+.#$$#.........++$$$$##.##$$$$$++.............**$$$$$$........**$$$$==...............@@$$$=.....@@$$@.....@$@...@ ",
" $...$$.#$$#.........++$$$$##.##$$$$$++.............**$$$$$$........**$$$$==...............@@$$$=.....@@$$@.....@$@..@. ",
" ....$$..=$=%.......%==$$$=.....==$$$==...........##$$$$$$$$........##$$$$$$@@............+$$$$$*.....@@$$@....%=$@..@. ",
" +*..$$..=$=%.......%%=$$$=.....==$$$==...........##$$$$$$$$........##$$$$$$@@............+$$$$$*.....@$$$@....%=$...$. ",
"  $++$$+.-$$=+.....-==$$$$-.....--$$$$$==#......--==$$$$$$$$..........&&$$$$$$@##.....%%**$$$$$$%.....-$$$$+..-$$$%..$$ ",
"  $$$$$+.-$$$=+....-==$$$$-.....--$$$$$==#......--==$$$$$$$$..........&&$$$$$$@##.....%%**$$$$$$%.....-$$$+...-$$$%..$  ",
"  $$$$$+..@$$$$$==$$$$$$@@........=$$$$$$$$$$$$$$$$$$$$$$$$$..........%%==$$$$$$$$$&&$$$$$$$$$++......%$$$$$$$$$$$+.-$  ",
"   $$$$$..@$$$$$==$$$$$$@@........=$$$$$$$$$$$$$$$$$$$$$$$$$..........%%==$$$$$$$$$&&$$$$$$$$$++......%$$$$$$$$=$$*.$   ",
"   .$$$$...@$$$$$$$$$$$@@.........%==$$$$$$$$$$$$$$$$$$$$$$$............%%==$$$$$$$$$$$$$$$$$+.........*$$$$$$$=$$..+   ",
"    .$$$+...-=$$$$$$$$$@@.........%==$$$$$$$$$$$$$$$$$$$$$$$............%%==$$$$$$$$$$$$$$$$$+.........*-=$$$=+$$%..    ",
"    ....+...-=$$$$$$$&+..............**$$$$$$$$$$$&&--$$$$$$..............%%**$$$$$$$$$$$@@%............-=$$$=@$....    ",
"     .........#+*--+%................**$$$$$$$$$$$&&--$$$$$$..............%%*$$$$$$$$$$$$@@%..............+++......     ",
"     ..........#+*-+%....................+++++++%%..++$$$$$$...................++++@@+++.................+++.......     ",
"      ..............................................++$$$$$$......................................................      ",
"       .............................................--$$$$$$.....................................................       ",
"        ..........................................%%==$$$$@@....................................................        ",
"         .........................................%%==$$$$@@...................................................         ",
"          ...........................%%@@@@@@@@@@@$$$$$$$$##..................................................          ",
"           ..........................%%@@@@@@@@@@@$$$$$$$$##.................................................           ",
"             ........................@@$$$$$$$$$$$$$$$$$@@.................................................             ",
"               .......................@$$$$$$$$$$$$$$$**.................................................               ",
"                  ....................@$$$$$$$$$$$$$$$**..............................................                  ",
"                      ................%@@@@@@@@@@@--%%............................................                      ",
"                           ..........................%.......................................                           ",
"                                       ..........................................                                       ",
"                                                                                                                        ",
"                                                                                                                        ",
"                                                                                                                        ",
"                                                                                                                        ",
"                                                                                                                        ",
"                                                                                                                        ",
"                                                                                                                        ",
"                                                                                                                        ",
"                                                                                                                        ",
"                                                                                                                        ",
"                                                                                                                        "};
