/* XPM */
static char * default_image_xpm[] = {
"120 42 19 1",
" 	c None",
".	c #CECECE",
"+	c #EFCCCC",
"@	c #C05454",
"#	c #C79191",
"$	c #C9A6A6",
"%	c #BC2C2C",
"&	c #CBBABA",
"*	c #C13232",
"=	c #BA1818",
"-	c #F7E5E5",
";	c #BE4040",
">	c #C26969",
",	c #C57D7D",
"'	c #E8B2B2",
")	c #D87F7F",
"!	c #C94B4B",
"~	c #D16565",
"{	c #E09898",
"                                                                                                                        ",
"                                                                                                                        ",
"                                                                                                                        ",
"                                                                                                                        ",
"                                                                                                                        ",
"       ............................................................................................................     ",
"       ............................................................................................................     ",
"       ............................................................................................................     ",
"       ............................................................................................................     ",
"       ............................................................................................................     ",
"      +@@@@@@@@@#........................................................................................$%%&......     ",
"      *==========........................................................................................@==@......     ",
"      *==========........................................................................................@==@......     ",
"      -@@@===;@@#........................................................................................@==@......     ",
"       ...===#.................&####..............####&...............$###$..............................@==@......     ",
"       ...===#...............$;======;$.........>%=====>,====%$.....,%======>&.....@====@...#=====@...#============*-   ",
"       ...===#..............@==========>......&%==============@...&%=========%#...#=====@...@=====@...=============='   ",
"       ...===#.............@============@.....%===============#..&%============#...%====@...>=====@...>=============+   ",
"       ...===#............,===%,...&,%===#...,===%$...,%====#&...;===;$...$>===%&..&#;==@....##;==@....##;==;######-    ",
"       ...===#............%==%&......&%==;...%==%......$====....$===@.......#===,....@==@......@==@......@==@......     ",
"       ...===#.......#&..&===,........,===&.$===#.......>===....,===&........;==;....@==@......@==@......@==@......     ",
"       ...===#......;==&.#===..........===#.#===........#===....@==@.........#===....@==@......@==@......@==@......     ",
"       ...===#......===#.#===..........===#.#===........#===....@==@.........#===....@==@......@==@......@==@......     ",
"       ...===#......===#.$===$........#===$.$===#.......>===....>==%.........@==%....@==@......@==@......@==@......     ",
"       ...===#......===#..%==%&......&%==%...%==%......$====....$===@.......#===>....@==@.....&%==@......@==@......     ",
"       ###===>######===#..,===%#....,%===,...,===%$...,%====.....;===@$...&>====&....,===#...,====;&.....@==;.....$)==' ",
"      !================#...@=====%%=====@.....%=============.....&%=====;======#.....&==============#....,====%@======~ ",
"      =================#....@==========@......&%============......&%==========#.......>========%====>.....%==========*- ",
"      '================#.....,%======;#.........>======;,===.......&>=======@&.........,%====%#@===%&.....&@=======!{   ",
"       ........................$#>,#&.............####&.#===..........##@##..............####...............&#,>##.     ",
"       .................................................,===.......................................................     ",
"       ................................................&%==@.......................................................     ",
"       .........................................&@@@@@@====$.......................................................     ",
"       .........................................@=========@........................................................     ",
"       .........................................@========>.........................................................     ",
"       .........................................&@@@@@@,&..........................................................     ",
"       ............................................................................................................     ",
"                                                                                                                        ",
"                                                                                                                        ",
"                                                                                                                        ",
"                                                                                                                        ",
"                                                                                                                        "};
